#!OML:ASF G:\ViconDB\ViconDB\414\test\team2\shane.ASF
:FULLY-SPECIFIED
:DEGREES
395
root 18.6598 16.915 -6.719 -189.575 -3.65243 -173.646
lowerback 9.1375 0.475111 1.40268
upperback 2.90759 0.546196 1.34665
thorax -2.10544 0.163376 0.547121
lowerneck -16.6618 -2.63574 -8.12458
upperneck 22.3465 -3.62636 6.20504
head 10.1302 -1.88357 3.02247
rclavicle -8.61607e-015 1.11319e-014
rhumerus -34.1059 3.29388 -89.5043
rradius 33.6386
rwrist 36.4623
rhand -29.3707 -11.4879
rfingers 7.12502
rthumb -2.70968 -41.4504
lclavicle -8.61607e-015 1.11319e-014
lhumerus -32.4218 -11.9174 91.9437
lradius 18.6391
lwrist -26.6014
lhand -37.3699 6.34194
lfingers 7.12502
lthumb -10.4315 36.0632
rfemur 4.91997 -11.445 8.79636
rtibia 59.4241
rfoot -6.48821 3.7497
rtoes -15.2053
lfemur 3.23932 17.211 -13.9695
ltibia 22.2886
lfoot -19.7954 -24.7078
ltoes -5.33707
396
root 18.6438 16.9124 -6.8515 -189.815 -4.6127 -173.466
lowerback 9.13216 0.272019 1.33777
upperback 3.12403 0.247575 1.5076
thorax -1.87958 0.00561196 0.781957
lowerneck -16.6855 -2.65232 -8.32466
upperneck 22.2768 -3.53894 6.06945
head 10.1048 -1.86873 3.01956
rclavicle 1.19519e-014 -1.19271e-015
rhumerus -34.8342 2.80601 -89.0319
rradius 33.4412
rwrist 36.3092
rhand -29.1361 -11.4179
rfingers 7.12502
rthumb -2.48312 -41.3832
lclavicle 1.19519e-014 -1.19271e-015
lhumerus -30.9768 -13.3246 92.637
lradius 19.2937
lwrist -26.0598
lhand -37.582 6.60016
lfingers 7.12502
lthumb -10.6361 36.311
rfemur 3.78033 -11.434 9.2892
rtibia 59.6215
rfoot -7.25132 3.1987
rtoes -15.0211
lfemur 4.06837 16.7768 -13.7305
ltibia 21.9172
lfoot -20.05 -25.2461
ltoes -5.46616
397
root 18.6338 16.9112 -6.98101 -190.043 -5.70605 -173.403
lowerback 9.24877 0.0644999 1.14621
upperback 3.28757 -0.0608076 1.57144
thorax -1.77339 -0.155513 0.988272
lowerneck -16.7656 -2.73569 -8.59019
upperneck 22.3904 -3.60328 6.14621
head 10.1732 -1.91267 3.08412
rclavicle -6.92019e-015 3.97569e-015
rhumerus -35.6755 2.29797 -88.7024
rradius 33.3417
rwrist 35.5816
rhand -29.3368 -11.9004
rfingers 7.12502
rthumb -2.67695 -41.8633
lclavicle -6.92019e-015 3.97569e-015
lhumerus -29.5288 -14.3044 93.0208
lradius 19.9036
lwrist -25.1927
lhand -37.745 5.95571
lfingers 7.12502
lthumb -10.7933 35.6584
rfemur 2.65548 -11.7124 9.52885
rtibia 59.6239
rfoot -8.14603 2.91129
rtoes -14.9392
lfemur 4.84798 16.0956 -13.6612
ltibia 21.556
lfoot -20.3018 -25.6718
ltoes -5.44765
398
root 18.6218 16.9015 -7.11411 -190.317 -6.65603 -173.271
lowerback 9.4071 -0.102158 0.93849
upperback 3.44081 -0.317016 1.7307
thorax -1.69785 -0.2934 1.29751
lowerneck -16.9892 -2.78999 -8.7679
upperneck 22.6818 -3.60729 6.04566
head 10.3235 -1.94434 3.08015
rclavicle 1.66482e-014 -2.5842e-014
rhumerus -36.5646 2.05213 -88.379
rradius 33.3963
rwrist 34.0929
rhand -28.9616 -12.0257
rfingers 7.12502
rthumb -2.31464 -41.9929
lclavicle 1.66482e-014 -2.5842e-014
lhumerus -28.2517 -15.7464 93.5675
lradius 20.5911
lwrist -24.6148
lhand -37.622 6.08974
lfingers 7.12502
lthumb -10.6747 35.7986
rfemur 1.61174 -11.6077 10.0087
rtibia 59.3723
rfoot -9.09278 2.26908
rtoes -15.0582
lfemur 5.68793 15.2762 -13.5455
ltibia 21.2655
lfoot -20.6528 -25.8132
ltoes -5.45197
399
root 18.6109 16.8958 -7.24708 -190.526 -7.63002 -173.137
lowerback 9.43047 -0.286559 0.898641
upperback 3.6052 -0.583789 1.78493
thorax -1.53528 -0.434119 1.40338
lowerneck -17.1451 -2.78156 -8.81559
upperneck 22.7125 -3.54588 5.99876
head 10.3596 -1.91949 3.08043
rclavicle -2.05866e-014 -2.26615e-014
rhumerus -37.4529 1.50887 -87.9249
rradius 33.02
rwrist 34.7709
rhand -29.1342 -12.4461
rfingers 7.12502
rthumb -2.48133 -42.4114
lclavicle -2.05866e-014 -2.26615e-014
lhumerus -26.7853 -16.1732 93.6132
lradius 21.1265
lwrist -24.9997
lhand -37.9062 6.18061
lfingers 7.12502
lthumb -10.9488 35.8751
rfemur 0.483948 -11.5259 10.5928
rtibia 58.8871
rfoot -9.68312 1.69652
rtoes -14.5478
lfemur 6.39562 14.7102 -13.3702
ltibia 21.0191
lfoot -20.9981 -26.2842
ltoes -5.20438
400
root 18.6 16.884 -7.37911 -190.676 -8.63604 -173.028
lowerback 9.4981 -0.418395 0.752428
upperback 3.69091 -0.780039 1.86239
thorax -1.47738 -0.537514 1.5867
lowerneck -16.9434 -2.87791 -9.10289
upperneck 22.6514 -3.65637 6.14024
head 10.3173 -1.98181 3.16408
rclavicle -1.27843e-014 -1.59028e-015
rhumerus -38.2952 0.520233 -87.2687
rradius 32.6385
rwrist 34.6797
rhand -28.986 -12.0031
rfingers 7.12502
rthumb -2.33821 -41.9701
lclavicle -1.27843e-014 -1.59028e-015
lhumerus -25.7025 -17.9547 94.142
lradius 22.103
lwrist -23.3323
lhand -37.7378 6.11862
lfingers 7.12502
lthumb -10.7864 35.8217
rfemur -0.637623 -11.5664 11.0939
rtibia 58.1739
rfoot -10.315 1.09297
rtoes -14.173
lfemur 7.0102 14.5978 -13.1008
ltibia 20.8382
lfoot -21.2723 -27.3012
ltoes -5.09352
401
root 18.587 16.869 -7.5129 -190.902 -9.58209 -172.922
lowerback 9.62146 -0.590617 0.613586
upperback 3.80815 -1.03474 1.96326
thorax -1.41381 -0.673178 1.79713
lowerneck -17.2524 -2.87186 -9.24453
upperneck 22.903 -3.59659 6.16216
head 10.4659 -1.96318 3.20706
rclavicle 1.80149e-015 8.74653e-015
rhumerus -39.0627 0.0291545 -86.719
rradius 32.0852
rwrist 35.1849
rhand -29.0861 -12.4459
rfingers 7.12502
rthumb -2.43485 -42.4118
lclavicle 1.80149e-015 8.74653e-015
lhumerus -24.5258 -18.6899 94.3273
lradius 22.7327
lwrist -23.2665
lhand -38.1514 6.41111
lfingers 7.12502
lthumb -11.1853 36.093
rfemur -1.60325 -11.4092 11.5982
rtibia 57.2085
rfoot -11.052 0.67388
rtoes -13.5836
lfemur 7.71276 13.8444 -13.0102
ltibia 20.6603
lfoot -21.6203 -27.5503
ltoes -5.24734
402
root 18.5727 16.8608 -7.6453 -190.967 -10.5291 -172.836
lowerback 9.5948 -0.736283 0.593113
upperback 3.90111 -1.23912 1.97129
thorax -1.29682 -0.778803 1.83653
lowerneck -17.1804 -2.95286 -9.14057
upperneck 22.7434 -3.67894 5.98157
head 10.3967 -2.00583 3.11084
rclavicle 1.48095e-014 -7.95139e-015
rhumerus -39.8433 -0.719063 -86.1738
rradius 31.6404
rwrist 35.4173
rhand -28.7183 -12.2455
rfingers 7.12502
rthumb -2.07962 -42.2151
lclavicle 1.48095e-014 -7.95139e-015
lhumerus -23.2948 -19.5946 94.3594
lradius 23.3726
lwrist -23.2848
lhand -38.3607 5.80028
lfingers 7.12502
lthumb -11.3871 35.4711
rfemur -2.73049 -11.2774 12.1071
rtibia 56.0184
rfoot -11.9144 0.295253
rtoes -13.4918
lfemur 8.20729 13.0034 -13.0288
ltibia 20.5051
lfoot -21.9904 -27.6523
ltoes -5.50282
403
root 18.5614 16.8486 -7.78546 -191.227 -11.3677 -172.684
lowerback 9.60668 -0.825895 0.558544
upperback 4.081 -1.38271 2.03728
thorax -1.11044 -0.860648 1.93669
lowerneck -17.1408 -2.97952 -9.33372
upperneck 22.6582 -3.67789 6.08233
head 10.3644 -2.00605 3.17949
rclavicle -1.9133e-014 -9.93923e-015
rhumerus -40.5246 -1.68353 -85.3788
rradius 30.8608
rwrist 36.6979
rhand -28.8259 -12.3262
rfingers 7.12502
rthumb -2.1836 -42.2948
lclavicle -1.9133e-014 -9.93923e-015
lhumerus -22.1778 -20.7977 94.579
lradius 24.1109
lwrist -22.223
lhand -38.7881 5.92712
lfingers 7.12502
lthumb -11.7993 35.5747
rfemur -3.52964 -10.9609 12.714
rtibia 54.5768
rfoot -12.8333 -0.196767
rtoes -13.8348
lfemur 8.9981 12.7962 -12.6727
ltibia 20.2575
lfoot -22.1799 -28.4627
ltoes -6.04049
404
root 18.5456 16.8367 -7.92492 -191.316 -12.2271 -172.598
lowerback 9.54246 -0.993815 0.477853
upperback 4.19485 -1.62624 2.10669
thorax -0.945786 -0.989328 2.07493
lowerneck -17.2168 -3.05576 -9.71714
upperneck 22.6015 -3.74429 6.42638
head 10.3792 -2.02356 3.3587
rclavicle 1.83876e-014 -1.90833e-014
rhumerus -41.2061 -2.0095 -84.8636
rradius 30.293
rwrist 36.7719
rhand -28.5769 -12.1996
rfingers 7.12502
rthumb -1.94304 -42.1705
lclavicle 1.83876e-014 -1.90833e-014
lhumerus -21.245 -22.0486 94.8086
lradius 25.0643
lwrist -21.067
lhand -39.1667 6.27325
lfingers 7.12502
lthumb -12.1644 35.8996
rfemur -4.39485 -10.7509 13.2219
rtibia 52.916
rfoot -13.6586 -0.599178
rtoes -14.3707
lfemur 9.61143 12.2726 -12.5649
ltibia 19.9469
lfoot -22.4612 -28.8072
ltoes -6.12865
